# xmcd
#
# Track frame offsets: 
#        150
#        24365
#        49080
#        74602
#        95927
#        118142
#        136137
#        160320
#        181575
#        200790
#        228762
#        255055
#
# Disc length: 3636 seconds
#
# Revision: 0
# Processed by: cddbd v1.5.2PL0 Copyright (c) Steve Scherf et al.
# Submitted via: ExactAudioCopy v1.0b3
#
DISCID=9f0e320c
DTITLE=Che Linh, Thanh Tuyen - Doan Tuyet
DYEAR=1992
DGENRE=
TTITLE0=Bien tinh
TTITLE1=Che Linh - Lo cuoc tinh sau
TTITLE2=Thanh Tuyen - Bien man
TTITLE3=Che Linh - Cho nguoi tinh lo
TTITLE4=Nua dem nguyen cau
TTITLE5=Che Linh - Chiec la cuoi cung
TTITLE6=Che Linh - Nhung chieu khong co em
TTITLE7=Che Linh - Tinh yeu tra lai trang sao
TTITLE8=Che Linh - Doan tuyet
TTITLE9=Tam su cua em
TTITLE10=Che Linh - Loi ke dang trinh
TTITLE11=Che Linh - Neu mot ngay
EXTD=
EXTT0=
EXTT1=
EXTT2=
EXTT3=
EXTT4=
EXTT5=
EXTT6=
EXTT7=
EXTT8=
EXTT9=
EXTT10=
EXTT11=
PLAYORDER=
